<svg xmlns="http://www.w3.org/2000/svg" viewBox="0 0 1024 1024">
  <rect width="1024" height="1024" fill="#6366f1" />
  <svg x="152" y="152" width="720" height="720" viewBox="150 150 720 720">
    <g transform="translate(0,1024) scale(0.1,-0.1)" fill="#ffffff">

<path d="M2810 8719 c-318 -28 -633 -187 -875 -440 -197 -206 -312 -427 -378
-723 l-22 -101 0 -2305 0 -2305 22 -120 c56 -306 189 -561 403 -775 163 -164
337 -272 551 -344 232 -77 7 -71 2604 -71 l2320 0 110 23 c287 61 519 187 726
392 244 242 381 525 419 865 8 71 10 757 8 2400 -3 2171 -5 2304 -22 2375
-120 505 -488 909 -971 1068 -195 64 -55 61 -2540 65 -1243 3 -2303 1 -2355
-4z m245 -1574 c151 -39 255 -172 255 -325 l0 -46 133 -43 c246 -80 1231 -389
1474 -464 l242 -74 38 51 c41 55 122 109 188 127 106 29 239 -8 330 -92 122
-113 135 -315 28 -455 l-34 -46 158 -239 c87 -132 209 -317 271 -412 62 -94
116 -175 121 -180 4 -4 27 -1 50 8 58 20 124 18 191 -5 30 -10 58 -16 61 -12
4 4 108 142 233 306 216 286 226 300 211 320 -87 118 -106 221 -64 345 27 80
106 168 181 202 42 19 71 24 138 24 77 0 92 -3 152 -33 123 -60 190 -169 190
-307 1 -119 -62 -236 -157 -295 l-34 -21 -4 -542 c-4 -582 -4 -579 -60 -742
-97 -281 -310 -495 -614 -614 -377 -147 -825 -46 -1110 252 -125 131 -198 257
-247 428 -43 150 -46 209 -46 848 l0 608 -42 28 c-99 65 -149 154 -156 276
l-4 76 -87 27 c-419 134 -1727 564 -1743 573 -4 2 -14 -11 -21 -30 -19 -44
-72 -103 -119 -133 l-38 -24 0 -539 0 -538 78 77 c157 154 343 250 566 289 98
18 286 13 395 -9 558 -113 925 -601 898 -1190 -22 -463 -295 -852 -707 -1007
-150 -56 -224 -68 -415 -68 -154 1 -180 3 -269 28 -307 84 -560 283 -701 550
-53 100 -81 182 -106 310 -18 92 -19 156 -19 1095 l0 997 -36 20 c-55 30 -130
118 -150 177 -76 221 80 447 316 457 14 1 53 -6 85 -14z"/>
<path d="M2895 7025 c-54 -19 -120 -91 -135 -146 -41 -153 76 -290 236 -277
141 12 233 172 175 303 -29 65 -46 83 -106 111 -57 27 -111 30 -170 9z"/>
<path d="M5375 6244 c-89 -49 -130 -124 -123 -228 5 -86 41 -140 117 -178 204
-104 412 119 297 316 -42 72 -93 100 -185 104 -55 2 -84 -2 -106 -14z"/>
<path d="M7155 5992 c-66 -36 -107 -102 -113 -182 -5 -72 9 -115 53 -167 112
-131 333 -81 382 86 56 195 -145 360 -322 263z"/>
<path d="M5615 5718 c-3 -8 -4 -303 -3 -654 4 -630 4 -640 26 -714 83 -273
267 -455 537 -531 103 -29 286 -32 384 -5 263 71 453 255 542 521 23 69 23 75
27 606 3 501 2 537 -14 543 -10 4 -20 2 -24 -4 -3 -5 -109 -146 -234 -311
l-229 -301 29 -61 c71 -147 8 -315 -144 -385 -46 -21 -65 -24 -126 -20 -39 3
-86 13 -105 22 -50 26 -120 95 -143 140 -43 84 -31 215 27 292 l24 31 -280
419 c-155 231 -283 421 -285 423 -2 2 -6 -3 -9 -11z"/>
<path d="M3785 5525 c-299 -65 -547 -306 -635 -615 -28 -96 -38 -290 -20 -397
53 -332 281 -595 592 -683 96 -27 272 -37 364 -20 328 61 592 305 674 625 59
229 21 498 -101 701 -77 128 -238 269 -384 335 -143 64 -342 87 -490 54z"/>
<path d="M6319 4840 c-105 -55 -128 -180 -52 -271 36 -42 74 -59 134 -59 104
0 173 70 172 175 0 80 -34 130 -106 160 -49 20 -104 18 -148 -5z"/>
  
    </g>
  </svg>
</svg>